<?xml version="1.0" encoding="UTF-8"?>
<svg width="800px" height="800px" viewBox="0 0 24 24" version="1.1" xmlns="http://www.w3.org/2000/svg">
    <g fill="none" stroke="#10b981" stroke-width="1.5">
        <path d="M12 12C12 13.1046 11.1046 14 10 14C8.89543 14 8 13.1046 8 12C8 10.8954 8.89543 10 10 10C11.1046 10 12 10.8954 12 12ZM12 12H14M16 12C16 13.1046 16.8954 14 18 14C19.1046 14 20 13.1046 20 12C20 10.8954 19.1046 10 18 10C16.8954 10 16 10.8954 16 12ZM8 12H6M4 12C4 13.1046 3.10457 14 2 14M4 12C4 10.8954 3.10457 10 2 10M22 12C22 13.1046 22.8954 14 24 14M22 12C22 10.8954 22.8954 10 24 10"/>
    </g>
</svg> 